OpenSourceFont-Light.ufo
<glyph name="A" format="2">
  <advance width="600"/>
  <unicode hex="0041"/>
  <outline>
    <contour>
      <point x="300" y="700" type="line"/>
      <point x="30" y="0" type="line"/>
      <point x="90" y="0" type="line"/>
      <point x="300" y="580" type="line"/>
      <point x="510" y="0" type="line"/>
      <point x="570" y="0" type="line"/>
    </contour>
    <contour>
      <point x="130" y="230" type="line"/>
      <point x="470" y="230" type="line"/>
      <point x="470" y="280" type="line"/>
      <point x="130" y="280" type="line"/>
    </contour>
  </outline>
</glyph>
<glyph name="B" format="2">
  <advance width="580"/>
  <unicode hex="0042"/>
  <outline>
    <contour>
      <point x="60" y="0" type="line"/>
      <point x="60" y="700" type="line"/>
      <point x="320" y="700" type="line"/>
      <point x="420" y="690" type="line" smooth="yes"/>
      <point x="490" y="650" type="line"/>
      <point x="520" y="580" type="line"/>
      <point x="520" y="520" type="line" smooth="yes"/>
      <point x="510" y="450" type="line"/>
      <point x="460" y="400" type="line"/>
      <point x="400" y="370" type="line"/>
      <point x="460" y="340" type="line"/>
      <point x="530" y="280" type="line"/>
      <point x="540" y="200" type="line" smooth="yes"/>
      <point x="540" y="120" type="line"/>
      <point x="500" y="50" type="line"/>
      <point x="420" y="10" type="line"/>
      <point x="320" y="0" type="line" smooth="yes"/>
    </contour>
    <contour>
      <point x="120" y="50" type="line"/>
      <point x="310" y="50" type="line"/>
      <point x="390" y="60" type="line" smooth="yes"/>
      <point x="450" y="90" type="line"/>
      <point x="480" y="150" type="line"/>
      <point x="480" y="200" type="line" smooth="yes"/>
      <point x="470" y="260" type="line"/>
      <point x="420" y="310" type="line"/>
      <point x="340" y="330" type="line"/>
      <point x="120" y="330" type="line"/>
    </contour>
    <contour>
      <point x="120" y="380" type="line"/>
      <point x="320" y="380" type="line"/>
      <point x="400" y="400" type="line" smooth="yes"/>
      <point x="450" y="440" type="line"/>
      <point x="460" y="510" type="line"/>
      <point x="460" y="560" type="line" smooth="yes"/>
      <point x="440" y="620" type="line"/>
      <point x="390" y="650" type="line"/>
      <point x="310" y="650" type="line"/>
      <point x="120" y="650" type="line"/>
    </contour>
  </outline>
</glyph>
<glyph name="C" format="2">
  <advance width="580"/>
  <unicode hex="0043"/>
  <outline>
    <contour>
      <point x="520" y="180" type="line"/>
      <point x="470" y="100" type="line"/>
      <point x="390" y="40" type="line"/>
      <point x="290" y="20" type="line" smooth="yes"/>
      <point x="190" y="40" type="line"/>
      <point x="110" y="100" type="line"/>
      <point x="60" y="190" type="line"/>
      <point x="40" y="300" type="line" smooth="yes"/>
      <point x="40" y="400" type="line"/>
      <point x="60" y="510" type="line"/>
      <point x="110" y="600" type="line"/>
      <point x="190" y="660" type="line"/>
      <point x="290" y="680" type="line" smooth="yes"/>
      <point x="390" y="660" type="line"/>
      <point x="470" y="600" type="line"/>
      <point x="520" y="520" type="line"/>
      <point x="460" y="490" type="line"/>
      <point x="420" y="560" type="line"/>
      <point x="360" y="610" type="line"/>
      <point x="290" y="630" type="line" smooth="yes"/>
      <point x="210" y="610" type="line"/>
      <point x="150" y="560" type="line"/>
      <point x="110" y="480" type="line"/>
      <point x="100" y="390" type="line" smooth="yes"/>
      <point x="100" y="310" type="line"/>
      <point x="110" y="220" type="line"/>
      <point x="150" y="140" type="line"/>
      <point x="210" y="90" type="line"/>
      <point x="290" y="70" type="line" smooth="yes"/>
      <point x="360" y="90" type="line"/>
      <point x="420" y="140" type="line"/>
      <point x="460" y="210" type="line"/>
    </contour>
  </outline>
</glyph>
<glyph name="D" format="2">
  <advance width="600"/>
  <unicode hex="0044"/>
  <outline>
    <contour>
      <point x="60" y="0" type="line"/>
      <point x="60" y="700" type="line"/>
      <point x="280" y="700" type="line" smooth="yes"/>
      <point x="380" y="690" type="line"/>
      <point x="470" y="650" type="line"/>
      <point x="530" y="580" type="line"/>
      <point x="560" y="480" type="line"/>
      <point x="570" y="350" type="line" smooth="yes"/>
      <point x="560" y="220" type="line"/>
      <point x="530" y="120" type="line"/>
      <point x="470" y="50" type="line"/>
      <point x="380" y="10" type="line"/>
      <point x="280" y="0" type="line" smooth="yes"/>
    </contour>
    <contour>
      <point x="120" y="50" type="line"/>
      <point x="270" y="50" type="line" smooth="yes"/>
      <point x="350" y="60" type="line"/>
      <point x="420" y="90" type="line"/>
      <point x="470" y="150" type="line"/>
      <point x="500" y="240" type="line"/>
      <point x="510" y="350" type="line" smooth="yes"/>
      <point x="500" y="460" type="line"/>
      <point x="470" y="550" type="line"/>
      <point x="420" y="610" type="line"/>
      <point x="350" y="640" type="line"/>
      <point x="270" y="650" type="line" smooth="yes"/>
      <point x="120" y="650" type="line"/>
    </contour>
  </outline>
</glyph>
<glyph name="E" format="2">
  <advance width="520"/>
  <unicode hex="0045"/>
  <outline>
    <contour>
      <point x="60" y="0" type="line"/>
      <point x="60" y="700" type="line"/>
      <point x="480" y="700" type="line"/>
      <point x="480" y="650" type="line"/>
      <point x="120" y="650" type="line"/>
      <point x="120" y="380" type="line"/>
      <point x="440" y="380" type="line"/>
      <point x="440" y="330" type="line"/>
      <point x="120" y="330" type="line"/>
      <point x="120" y="50" type="line"/>
      <point x="490" y="50" type="line"/>
      <point x="490" y="0" type="line"/>
    </contour>
  </outline>
</glyph>
<glyph name="F" format="2">
  <advance width="500"/>
  <unicode hex="0046"/>
  <outline>
    <contour>
      <point x="60" y="0" type="line"/>
      <point x="60" y="700" type="line"/>
      <point x="470" y="700" type="line"/>
      <point x="470" y="650" type="line"/>
      <point x="120" y="650" type="line"/>
      <point x="120" y="380" type="line"/>
      <point x="420" y="380" type="line"/>
      <point x="420" y="330" type="line"/>
      <point x="120" y="330" type="line"/>
      <point x="120" y="0" type="line"/>
    </contour>
  </outline>
</glyph>
<glyph name="G" format="2">
  <advance width="620"/>
  <unicode hex="0047"/>
  <outline>
    <contour>
      <point x="540" y="180" type="line"/>
      <point x="490" y="100" type="line"/>
      <point x="410" y="40" type="line"/>
      <point x="310" y="20" type="line" smooth="yes"/>
      <point x="200" y="40" type="line"/>
      <point x="120" y="100" type="line"/>
      <point x="70" y="190" type="line"/>
      <point x="50" y="300" type="line" smooth="yes"/>
      <point x="50" y="400" type="line"/>
      <point x="70" y="510" type="line"/>
      <point x="120" y="600" type="line"/>
      <point x="200" y="660" type="line"/>
      <point x="310" y="680" type="line" smooth="yes"/>
      <point x="410" y="660" type="line"/>
      <point x="490" y="600" type="line"/>
      <point x="540" y="520" type="line"/>
      <point x="480" y="490" type="line"/>
      <point x="440" y="560" type="line"/>
      <point x="380" y="610" type="line"/>
      <point x="310" y="630" type="line" smooth="yes"/>
      <point x="220" y="610" type="line"/>
      <point x="160" y="560" type="line"/>
      <point x="120" y="480" type="line"/>
      <point x="110" y="390" type="line" smooth="yes"/>
      <point x="110" y="310" type="line"/>
      <point x="120" y="220" type="line"/>
      <point x="160" y="140" type="line"/>
      <point x="220" y="90" type="line"/>
      <point x="310" y="70" type="line" smooth="yes"/>
      <point x="380" y="90" type="line"/>
      <point x="440" y="140" type="line"/>
      <point x="480" y="210" type="line"/>
      <point x="480" y="300" type="line"/>
      <point x="320" y="300" type="line"/>
      <point x="320" y="350" type="line"/>
      <point x="540" y="350" type="line"/>
    </contour>
  </outline>
</glyph>
<glyph name="H" format="2">
  <advance width="600"/>
  <unicode hex="0048"/>
  <outline>
    <contour>
      <point x="60" y="0" type="line"/>
      <point x="60" y="700" type="line"/>
      <point x="120" y="700" type="line"/>
      <point x="120" y="380" type="line"/>
      <point x="480" y="380" type="line"/>
      <point x="480" y="700" type="line"/>
      <point x="540" y="700" type="line"/>
      <point x="540" y="0" type="line"/>
      <point x="480" y="0" type="line"/>
      <point x="480" y="330" type="line"/>
      <point x="120" y="330" type="line"/>
      <point x="120" y="0" type="line"/>
    </contour>
  </outline>
</glyph>
<glyph name="I" format="2">
  <advance width="280"/>
  <unicode hex="0049"/>
  <outline>
    <contour>
      <point x="110" y="0" type="line"/>
      <point x="110" y="700" type="line"/>
      <point x="170" y="700" type="line"/>
      <point x="170" y="0" type="line"/>
    </contour>
  </outline>
</glyph>
<glyph name="J" format="2">
  <advance width="400"/>
  <unicode hex="004A"/>
  <outline>
    <contour>
      <point x="260" y="700" type="line"/>
      <point x="320" y="700" type="line"/>
      <point x="320" y="200" type="line" smooth="yes"/>
      <point x="310" y="120" type="line"/>
      <point x="270" y="50" type="line"/>
      <point x="200" y="10" type="line"/>
      <point x="120" y="0" type="line" smooth="yes"/>
      <point x="60" y="10" type="line"/>
      <point x="60" y="60" type="line"/>
      <point x="120" y="50" type="line" smooth="yes"/>
      <point x="180" y="60" type="line"/>
      <point x="230" y="100" type="line"/>
      <point x="255" y="160" type="line"/>
      <point x="260" y="220" type="line" smooth="yes"/>
    </contour>
  </outline>
</glyph>
<glyph name="K" format="2">
  <advance width="560"/>
  <unicode hex="004B"/>
  <outline>
    <contour>
      <point x="60" y="0" type="line"/>
      <point x="60" y="700" type="line"/>
      <point x="120" y="700" type="line"/>
      <point x="120" y="380" type="line"/>
      <point x="440" y="700" type="line"/>
      <point x="520" y="700" type="line"/>
      <point x="230" y="410" type="line"/>
      <point x="540" y="0" type="line"/>
      <point x="460" y="0" type="line"/>
      <point x="190" y="360" type="line"/>
      <point x="120" y="290" type="line"/>
      <point x="120" y="0" type="line"/>
    </contour>
  </outline>
</glyph>
<glyph name="L" format="2">
  <advance width="480"/>
  <unicode hex="004C"/>
  <outline>
    <contour>
      <point x="60" y="0" type="line"/>
      <point x="60" y="700" type="line"/>
      <point x="120" y="700" type="line"/>
      <point x="120" y="50" type="line"/>
      <point x="460" y="50" type="line"/>
      <point x="460" y="0" type="line"/>
    </contour>
  </outline>
</glyph>
<glyph name="M" format="2">
  <advance width="720"/>
  <unicode hex="004D"/>
  <outline>
    <contour>
      <point x="60" y="0" type="line"/>
      <point x="60" y="700" type="line"/>
      <point x="120" y="700" type="line"/>
      <point x="360" y="150" type="line"/>
      <point x="600" y="700" type="line"/>
      <point x="660" y="700" type="line"/>
      <point x="660" y="0" type="line"/>
      <point x="600" y="0" type="line"/>
      <point x="600" y="580" type="line"/>
      <point x="380" y="70" type="line"/>
      <point x="340" y="70" type="line"/>
      <point x="120" y="580" type="line"/>
      <point x="120" y="0" type="line"/>
    </contour>
  </outline>
</glyph>
<glyph name="N" format="2">
  <advance width="620"/>
  <unicode hex="004E"/>
  <outline>
    <contour>
      <point x="60" y="0" type="line"/>
      <point x="60" y="700" type="line"/>
      <point x="120" y="700" type="line"/>
      <point x="500" y="100" type="line"/>
      <point x="500" y="700" type="line"/>
      <point x="560" y="700" type="line"/>
      <point x="560" y="0" type="line"/>
      <point x="500" y="0" type="line"/>
      <point x="120" y="600" type="line"/>
      <point x="120" y="0" type="line"/>
    </contour>
  </outline>
</glyph>
<glyph name="O" format="2">
  <advance width="640"/>
  <unicode hex="004F"/>
  <outline>
    <contour>
      <point x="320" y="680" type="line" smooth="yes"/>
      <point x="420" y="660" type="line"/>
      <point x="500" y="600" type="line"/>
      <point x="560" y="510" type="line"/>
      <point x="590" y="400" type="line"/>
      <point x="600" y="350" type="line" smooth="yes"/>
      <point x="590" y="300" type="line"/>
      <point x="560" y="190" type="line"/>
      <point x="500" y="100" type="line"/>
      <point x="420" y="40" type="line"/>
      <point x="320" y="20" type="line" smooth="yes"/>
      <point x="220" y="40" type="line"/>
      <point x="140" y="100" type="line"/>
      <point x="80" y="190" type="line"/>
      <point x="50" y="300" type="line"/>
      <point x="40" y="350" type="line" smooth="yes"/>
      <point x="50" y="400" type="line"/>
      <point x="80" y="510" type="line"/>
      <point x="140" y="600" type="line"/>
      <point x="220" y="660" type="line"/>
    </contour>
    <contour>
      <point x="320" y="630" type="line" smooth="yes"/>
      <point x="240" y="610" type="line"/>
      <point x="175" y="560" type="line"/>
      <point x="125" y="480" type="line"/>
      <point x="105" y="390" type="line"/>
      <point x="100" y="350" type="line" smooth="yes"/>
      <point x="105" y="310" type="line"/>
      <point x="125" y="220" type="line"/>
      <point x="175" y="140" type="line"/>
      <point x="240" y="90" type="line"/>
      <point x="320" y="70" type="line" smooth="yes"/>
      <point x="400" y="90" type="line"/>
      <point x="465" y="140" type="line"/>
      <point x="515" y="220" type="line"/>
      <point x="535" y="310" type="line"/>
      <point x="540" y="350" type="line" smooth="yes"/>
      <point x="535" y="390" type="line"/>
      <point x="515" y="480" type="line"/>
      <point x="465" y="560" type="line"/>
      <point x="400" y="610" type="line"/>
    </contour>
  </outline>
</glyph>
<glyph name="P" format="2">
  <advance width="540"/>
  <unicode hex="0050"/>
  <outline>
    <contour>
      <point x="60" y="0" type="line"/>
      <point x="60" y="700" type="line"/>
      <point x="300" y="700" type="line" smooth="yes"/>
      <point x="380" y="690" type="line"/>
      <point x="450" y="650" type="line"/>
      <point x="490" y="580" type="line"/>
      <point x="510" y="490" type="line" smooth="yes"/>
      <point x="490" y="400" type="line"/>
      <point x="450" y="330" type="line"/>
      <point x="380" y="290" type="line"/>
      <point x="300" y="280" type="line" smooth="yes"/>
      <point x="120" y="280" type="line"/>
      <point x="120" y="0" type="line"/>
    </contour>
    <contour>
      <point x="120" y="330" type="line"/>
      <point x="290" y="330" type="line" smooth="yes"/>
      <point x="360" y="340" type="line"/>
      <point x="410" y="370" type="line"/>
      <point x="440" y="420" type="line"/>
      <point x="450" y="490" type="line" smooth="yes"/>
      <point x="440" y="560" type="line"/>
      <point x="410" y="610" type="line"/>
      <point x="360" y="640" type="line"/>
      <point x="290" y="650" type="line" smooth="yes"/>
      <point x="120" y="650" type="line"/>
    </contour>
  </outline>
</glyph>
<glyph name="S" format="2">
  <advance width="520"/>
  <unicode hex="0053"/>
  <outline>
    <contour>
      <point x="440" y="560" type="line"/>
      <point x="410" y="610" type="line"/>
      <point x="360" y="640" type="line"/>
      <point x="280" y="660" type="line" smooth="yes"/>
      <point x="200" y="650" type="line"/>
      <point x="140" y="610" type="line"/>
      <point x="100" y="560" type="line"/>
      <point x="90" y="500" type="line" smooth="yes"/>
      <point x="100" y="450" type="line"/>
      <point x="130" y="410" type="line"/>
      <point x="180" y="380" type="line"/>
      <point x="260" y="350" type="line"/>
      <point x="360" y="320" type="line" smooth="yes"/>
      <point x="420" y="290" type="line"/>
      <point x="460" y="240" type="line"/>
      <point x="480" y="180" type="line" smooth="yes"/>
      <point x="470" y="110" type="line"/>
      <point x="430" y="50" type="line"/>
      <point x="360" y="10" type="line"/>
      <point x="270" y="0" type="line" smooth="yes"/>
      <point x="180" y="10" type="line"/>
      <point x="110" y="50" type="line"/>
      <point x="60" y="110" type="line"/>
      <point x="120" y="140" type="line"/>
      <point x="160" y="90" type="line"/>
      <point x="210" y="55" type="line"/>
      <point x="280" y="45" type="line" smooth="yes"/>
      <point x="340" y="55" type="line"/>
      <point x="390" y="85" type="line"/>
      <point x="420" y="130" type="line"/>
      <point x="420" y="180" type="line" smooth="yes"/>
      <point x="410" y="230" type="line"/>
      <point x="380" y="270" type="line"/>
      <point x="320" y="300" type="line"/>
      <point x="230" y="330" type="line" smooth="yes"/>
      <point x="160" y="360" type="line"/>
      <point x="100" y="400" type="line"/>
      <point x="60" y="460" type="line"/>
      <point x="50" y="520" type="line" smooth="yes"/>
      <point x="60" y="590" type="line"/>
      <point x="100" y="650" type="line"/>
      <point x="170" y="690" type="line"/>
      <point x="260" y="700" type="line" smooth="yes"/>
      <point x="350" y="690" type="line"/>
      <point x="420" y="650" type="line"/>
      <point x="470" y="590" type="line"/>
    </contour>
  </outline>
</glyph>
<glyph name="T" format="2">
  <advance width="540"/>
  <unicode hex="0054"/>
  <outline>
    <contour>
      <point x="240" y="0" type="line"/>
      <point x="240" y="650" type="line"/>
      <point x="30" y="650" type="line"/>
      <point x="30" y="700" type="line"/>
      <point x="510" y="700" type="line"/>
      <point x="510" y="650" type="line"/>
      <point x="300" y="650" type="line"/>
      <point x="300" y="0" type="line"/>
    </contour>
  </outline>
</glyph>
<glyph name="U" format="2">
  <advance width="600"/>
  <unicode hex="0055"/>
  <outline>
    <contour>
      <point x="60" y="700" type="line"/>
      <point x="120" y="700" type="line"/>
      <point x="120" y="250" type="line" smooth="yes"/>
      <point x="130" y="170" type="line"/>
      <point x="160" y="110" type="line"/>
      <point x="210" y="65" type="line"/>
      <point x="300" y="50" type="line" smooth="yes"/>
      <point x="390" y="65" type="line"/>
      <point x="440" y="110" type="line"/>
      <point x="470" y="170" type="line"/>
      <point x="480" y="250" type="line" smooth="yes"/>
      <point x="480" y="700" type="line"/>
      <point x="540" y="700" type="line"/>
      <point x="540" y="250" type="line" smooth="yes"/>
      <point x="525" y="150" type="line"/>
      <point x="480" y="70" type="line"/>
      <point x="410" y="20" type="line"/>
      <point x="300" y="0" type="line" smooth="yes"/>
      <point x="190" y="20" type="line"/>
      <point x="120" y="70" type="line"/>
      <point x="75" y="150" type="line"/>
      <point x="60" y="250" type="line" smooth="yes"/>
    </contour>
  </outline>
</glyph>
<glyph name="V" format="2">
  <advance width="580"/>
  <unicode hex="0056"/>
  <outline>
    <contour>
      <point x="290" y="0" type="line"/>
      <point x="20" y="700" type="line"/>
      <point x="85" y="700" type="line"/>
      <point x="290" y="120" type="line"/>
      <point x="495" y="700" type="line"/>
      <point x="560" y="700" type="line"/>
    </contour>
  </outline>
</glyph>
<glyph name="W" format="2">
  <advance width="820"/>
  <unicode hex="0057"/>
  <outline>
    <contour>
      <point x="205" y="0" type="line"/>
      <point x="20" y="700" type="line"/>
      <point x="85" y="700" type="line"/>
      <point x="230" y="120" type="line"/>
      <point x="385" y="700" type="line"/>
      <point x="435" y="700" type="line"/>
      <point x="590" y="120" type="line"/>
      <point x="735" y="700" type="line"/>
      <point x="800" y="700" type="line"/>
      <point x="615" y="0" type="line"/>
      <point x="560" y="0" type="line"/>
      <point x="410" y="560" type="line"/>
      <point x="260" y="0" type="line"/>
    </contour>
  </outline>
</glyph>
<glyph name="X" format="2">
  <advance width="560"/>
  <unicode hex="0058"/>
  <outline>
    <contour>
      <point x="30" y="0" type="line"/>
      <point x="245" y="340" type="line"/>
      <point x="30" y="700" type="line"/>
      <point x="100" y="700" type="line"/>
      <point x="280" y="400" type="line"/>
      <point x="460" y="700" type="line"/>
      <point x="530" y="700" type="line"/>
      <point x="315" y="340" type="line"/>
      <point x="530" y="0" type="line"/>
      <point x="460" y="0" type="line"/>
      <point x="280" y="280" type="line"/>
      <point x="100" y="0" type="line"/>
    </contour>
  </outline>
</glyph>
<glyph name="Y" format="2">
  <advance width="560"/>
  <unicode hex="0059"/>
  <outline>
    <contour>
      <point x="250" y="0" type="line"/>
      <point x="250" y="280" type="line"/>
      <point x="20" y="700" type="line"/>
      <point x="90" y="700" type="line"/>
      <point x="280" y="350" type="line"/>
      <point x="470" y="700" type="line"/>
      <point x="540" y="700" type="line"/>
      <point x="310" y="280" type="line"/>
      <point x="310" y="0" type="line"/>
    </contour>
  </outline>
</glyph>
<glyph name="Z" format="2">
  <advance width="540"/>
  <unicode hex="005A"/>
  <outline>
    <contour>
      <point x="50" y="0" type="line"/>
      <point x="50" y="50" type="line"/>
      <point x="430" y="650" type="line"/>
      <point x="60" y="650" type="line"/>
      <point x="60" y="700" type="line"/>
      <point x="500" y="700" type="line"/>
      <point x="500" y="650" type="line"/>
      <point x="120" y="50" type="line"/>
      <point x="500" y="50" type="line"/>
      <point x="500" y="0" type="line"/>
    </contour>
  </outline>
</glyph>
